<?xml version="1.0" encoding="UTF-8"?>
<svg width="48px" height="40px" viewBox="0 0 48 40" version="1.1" xmlns="http://www.w3.org/2000/svg" xmlns:xlink="http://www.w3.org/1999/xlink">
    <!-- Generator: sketchtool 63.1 (101010) - https://sketch.com -->
    <title>5CFD7B40-2C6E-4A25-9DE1-CD0B0194B037@1.5x</title>
    <desc>Created with sketchtool.</desc>
    <defs>
        <polygon id="path-1" points="7.5e-05 0.0490866511 47.9999063 0.0490866511 47.9999063 39.9063044 7.5e-05 39.9063044"></polygon>
    </defs>
    <g id="Page-1" stroke="none" stroke-width="1" fill="none" fill-rule="evenodd">
        <g id="7.1-Servicios---ayuda" transform="translate(-21.000000, -405.000000)">
            <g id="Group-14" transform="translate(21.000000, 405.000000)">
                <path d="M17.8799156,15.8718876 C17.8799156,15.8718876 22.3460719,10.128 23.7202594,10.128 L29.9041031,10.128 L32.3776969,7.95432319 C32.3776969,7.95432319 34.4686031,7.54879625 34.1640094,9.37277752 C33.8594156,11.1967588 31.2095719,12.6682342 31.2095719,12.6682342 L24.5446969,13.217555 L21.6557906,15.8718876 L19.8037594,16.8086557 L17.8799156,15.8718876 Z" id="Fill-1" fill="#C9DAFF"></path>
                <path d="M24.5446781,37.1784637 L39.2486156,22.5547635 C39.2486156,22.5547635 45.4923656,16.6082529 41.9282719,9.76750351 L45.5011781,7.95438876 L47.3563031,14.9350913 L46.6004906,19.602445 L43.7833969,23.6532178 L40.7602406,27.0196815 L37.8056156,28.310829 L37.1872406,30.2817892 L33.8892094,32.0608056 L33.3395531,34.5008056 L29.9727094,35.8049742 L29.8353656,38.0771054 L27.4304906,39.2380422 L24.5446781,37.1784637 Z" id="Fill-3" fill="#C9DAFF"></path>
                <path d="M8.49219375,20.9097986 C6.83094375,18.0135925 5.94463125,15.0367307 6.646725,12.3249742 C9.2242875,2.36984543 21.6558187,7.23935363 21.6558187,7.23935363 L23.9999437,4.42951756 L17.659725,1.202726 L13.3450687,0.722163934 L7.98575625,2.57584075 L2.62644375,7.23935363 L0.70250625,13.8354192 L2.2140375,20.9130773 L5.28369375,23.9777143 C6.2006625,22.8195878 7.38950625,21.9060515 8.49219375,20.9097986" id="Fill-5" fill="#C9DAFF"></path>
                <path d="M43.8525094,4.29406089 C43.6771969,4.11888525 43.4362594,4.01949415 43.1896031,4.01949415 C42.9421031,4.01949415 42.7011656,4.11888525 42.5257594,4.29406089 C42.3514781,4.46820609 42.2520094,4.70904918 42.2520094,4.95635597 C42.2520094,5.202726 42.3514781,5.44450585 42.5257594,5.61874473 C42.7010719,5.79298361 42.9420094,5.8932178 43.1896031,5.8932178 C43.4361656,5.8932178 43.6771969,5.79307728 43.8525094,5.61874473 C44.0267906,5.44450585 44.1262594,5.20281967 44.1262594,4.95635597 C44.1262594,4.70904918 44.0267906,4.46820609 43.8525094,4.29406089" id="Fill-7" fill="#0B43C4"></path>
                <path d="M22.3191281,26.3574239 C22.1439094,26.1822482 21.9029719,26.0827635 21.6563156,26.0827635 C21.4087219,26.0827635 21.1677844,26.1822482 20.9924719,26.3574239 C20.8180969,26.5314754 20.7187219,26.7724122 20.7187219,27.0196253 C20.7187219,27.2659953 20.8180969,27.5076815 20.9924719,27.6821077 C21.1677844,27.8563466 21.4086281,27.9564871 21.6563156,27.9564871 C21.9028781,27.9564871 22.1438156,27.8564403 22.3191281,27.6821077 C22.4935031,27.5077752 22.5928782,27.266089 22.5928782,27.0196253 C22.5929719,26.7724122 22.4935969,26.5314754 22.3191281,26.3574239" id="Fill-9" fill="#0B43C4"></path>
                <g id="Group-13" transform="translate(0.000000, 0.044590)">
                    <mask id="mask-2" fill="white">
                        <use xlink:href="#path-1"></use>
                    </mask>
                    <g id="Clip-12"></g>
                    <path d="M39.6115125,26.5107073 C39.2983875,26.8236815 38.88195,26.9960468 38.4391687,26.9960468 C37.9962937,26.9960468 37.57995,26.8236815 37.266825,26.5107073 L33.3642937,22.6112225 L33.363825,22.6107541 L29.6935125,18.9433068 C29.327325,18.5774988 28.7337937,18.5774988 28.3675125,18.9433068 C28.0014187,19.3091148 28.0014187,19.90237 28.3675125,20.268178 L35.940825,27.8354848 C36.587325,28.4814801 36.587325,29.5324403 35.940825,30.1783419 C35.6277,30.4913162 35.2112625,30.6635878 34.7684813,30.6635878 C34.3256062,30.6635878 33.9092625,30.4913162 33.5961375,30.1783419 L26.022825,22.6110351 C25.6566375,22.2453208 25.0631062,22.2453208 24.696825,22.6110351 C24.3307312,22.9768431 24.3307312,23.5700984 24.696825,23.9360937 L28.3667625,27.6029789 C28.3671375,27.60326 28.367325,27.6036347 28.3676062,27.6039157 L32.2702312,31.5033068 C32.9167312,32.1493958 32.9167312,33.2004496 32.270325,33.846445 C31.6237312,34.4923466 30.5717625,34.4923466 29.9256375,33.846445 L26.0229187,29.9468665 C25.9507313,29.8747354 25.8696375,29.8174052 25.7832937,29.7737518 L24.6702,28.6615269 C24.3040125,28.2959063 23.7104812,28.2959063 23.3442,28.6615269 C22.9781062,29.0273349 22.9781062,29.6205902 23.3442,29.9864918 L28.5663562,35.2043841 C29.2127625,35.8503794 29.2127625,36.9013396 28.5663562,37.5472412 C28.2531375,37.8602155 27.8367,38.0324871 27.3939187,38.0324871 C26.9510437,38.0324871 26.5347,37.8602155 26.221575,37.5472412 L24.2345437,35.5617611 C24.3858562,35.1649461 24.4659187,34.7399344 24.4659187,34.3024637 C24.4659187,33.3594192 24.0984187,32.4728618 23.4311062,31.8060703 C22.7637,31.1392787 21.87645,30.7720656 20.9328562,30.7720656 C20.8851375,30.7720656 20.8377,30.7736581 20.7902625,30.7755316 C20.82795,29.8250867 20.4851062,28.86237 19.7605125,28.1382482 C19.0931062,27.4714567 18.2058562,27.1042436 17.2622625,27.1042436 C17.2146375,27.1042436 17.1671062,27.1059297 17.1196687,27.1077096 C17.1573562,26.1573583 16.8145125,25.1944543 16.0900125,24.4705199 C15.4225125,23.8037283 14.5353562,23.4365152 13.5916687,23.4365152 C13.54395,23.4365152 13.4965125,23.4380141 13.4491687,23.4399813 C13.4867625,22.4894426 13.1439187,21.5266323 12.419325,20.8026042 C11.0417625,19.4262108 8.80010625,19.4263044 7.42254375,20.8026042 L5.80685625,22.4171241 C5.60304375,22.6207775 5.4302625,22.8436347 5.2866375,23.0794192 C3.08435625,20.742089 1.87554375,17.7034941 1.87554375,14.4790445 C1.87554375,11.1250398 3.18260625,7.97178454 5.55616875,5.6002623 C7.9296375,3.22874005 11.08545,1.92260422 14.4417937,1.92260422 C17.4921375,1.92260422 20.3763562,3.00148009 22.6584187,4.97815457 L16.896825,10.7352506 C16.13595,11.4956253 15.7168875,12.5064918 15.7168875,13.5817143 C15.7168875,14.6570304 16.13595,15.667897 16.896825,16.4282717 C17.6822625,17.213096 18.7139812,17.6055082 19.7457,17.6055082 C20.777325,17.6055082 21.80895,17.2131897 22.5943875,16.4282717 L25.1473875,13.8772646 L28.4523562,13.8772646 C28.7252625,13.8772646 28.9951687,13.858623 29.2618875,13.825555 L39.612075,24.1675691 C40.2580125,24.8139391 40.2580125,25.8648993 39.6115125,26.5107073 M22.1051062,35.4740796 L20.4892312,37.0885995 C20.1761062,37.4014801 19.7597625,37.5739391 19.3168875,37.5739391 C18.8741062,37.5739391 18.4576687,37.4016674 18.1446375,37.0885995 C17.4980437,36.4425105 17.4980437,35.391644 18.1446375,34.7456487 L19.760325,33.1311288 L19.760325,33.1310351 C20.07345,32.8181546 20.4897937,32.6457892 20.9326687,32.6457892 C21.37545,32.6457892 21.7918875,32.8180609 22.1051062,33.1310351 C22.4182312,33.4440094 22.5906375,33.8600281 22.5906375,34.3025574 C22.5907312,34.7451803 22.4182312,35.1611991 22.1051062,35.4740796 M14.4738562,33.4206838 C14.1606375,33.1077096 13.988325,32.6915972 13.988325,32.2491616 C13.988325,31.8066323 14.1606375,31.3907073 14.4738562,31.077733 L16.0897312,29.4633068 L16.0897312,29.4632131 C16.4027625,29.1503326 16.8191062,28.9778735 17.2619812,28.9778735 C17.7048562,28.9778735 18.1212937,29.1502389 18.434325,29.4632131 C19.080825,30.1092084 19.080825,31.1601686 18.434325,31.8060703 L16.8185437,33.4206838 C16.1721375,34.0665855 15.1203562,34.0665855 14.4738562,33.4206838 M10.8032625,29.7528618 C10.4900438,29.4399813 10.3176375,29.0238689 10.3176375,28.5814333 C10.3176375,28.138904 10.4900438,27.7228852 10.8032625,27.4100984 L12.4190438,25.7954848 L12.4190438,25.7953911 C12.7321688,25.4825105 13.1486063,25.3102389 13.5913875,25.3102389 C14.0341688,25.3102389 14.4506063,25.4824169 14.7637313,25.7953911 C15.410325,26.4414801 15.410325,27.4923466 14.7637313,28.1382482 L13.1481375,29.7527681 C12.50145,30.3986698 11.4493875,30.3986698 10.8032625,29.7528618 M8.30491875,26.5702857 C7.86195,26.5702857 7.44560625,26.3979204 7.13248125,26.0849461 C6.8192625,25.7720656 6.6467625,25.3560468 6.6467625,24.9135176 C6.6467625,24.4711756 6.81916875,24.0549696 7.13248125,23.742089 L8.748075,22.1276628 C9.0612,21.8146885 9.4776375,21.6424169 9.9205125,21.6424169 C10.3633875,21.6424169 10.7797312,21.8146885 11.0928562,22.1276628 C11.7393562,22.7736581 11.7393562,23.8246183 11.0928562,24.4706136 L9.47716875,26.0850398 C9.1641375,26.3978267 8.74779375,26.5702857 8.30491875,26.5702857 M46.1233875,7.36073068 C45.86745,6.91089461 45.294825,6.75370492 44.8449187,7.00944262 C44.394825,7.26518033 44.2374187,7.83717096 44.49345,8.28691335 C47.2783875,13.1804028 46.4377312,19.381808 42.4488562,23.3674754 L41.73795,24.0778267 C41.5662,23.6276159 41.3000438,23.2051335 40.9376062,22.8430726 L31.3041375,13.2172178 C31.9341375,12.9075222 32.5162312,12.4943138 33.0273562,11.9836815 L34.8749812,10.1374052 C35.2409813,9.77159719 35.2409813,9.17834192 34.8749812,8.81253396 C34.5087,8.446726 33.9151687,8.446726 33.5488875,8.81253396 L31.7012625,10.6588103 C30.8332312,11.5260703 29.6793562,12.0037283 28.4517938,12.0037283 L24.758325,12.0037283 C24.5097,12.0037283 24.2712938,12.1024637 24.095325,12.2781077 L21.267825,15.1034005 C20.4282,15.9424637 19.0619813,15.9424637 18.22245,15.1034005 C17.3827312,14.2644309 17.3827312,12.8992787 18.22245,12.0603091 L24.6776063,5.61019204 C28.6225125,1.66827166 34.781325,0.801386417 39.6538875,3.50208899 C40.1067,3.75286183 40.67745,3.58977049 40.9286062,3.1372178 C41.1798562,2.68475878 41.0162625,2.11445433 40.56345,1.86349415 C37.875825,0.374126464 34.709325,-0.22193911 31.6467,0.185648712 C28.780575,0.567007026 26.1571688,1.76616393 24.0067313,3.6689274 C21.36495,1.32878689 18.0018562,0.0490679157 14.441325,0.0490679157 C10.5837937,0.0490679157 6.95735625,1.55005152 4.2297,4.27548478 C1.50204375,7.00091803 7.5e-05,10.6248056 7.5e-05,14.4791382 C7.5e-05,18.3335644 1.5021375,21.9572646 4.2297,24.6826979 L4.58304375,25.0357658 C4.6446375,25.0971241 4.71279375,25.1473349 4.78498125,25.1880843 C4.8477,25.9985761 5.18754375,26.7914567 5.80648125,27.4100047 C6.49545,28.0982482 7.39995,28.4422295 8.304825,28.4422295 C8.35179375,28.4422295 8.3987625,28.4408244 8.44573125,28.4388571 C8.44385625,28.4862576 8.4422625,28.5337518 8.4422625,28.5813396 C8.4422625,29.5242904 8.8097625,30.4108478 9.477075,31.0776393 C10.1660438,31.7660703 11.0705437,32.1100515 11.975325,32.1099578 C12.0222937,32.1099578 12.0693562,32.108459 12.116325,32.1065855 C12.11445,32.1539859 12.11295,32.2013864 12.11295,32.2490679 C12.11295,33.1920187 12.48045,34.0785761 13.1477625,34.7453677 C13.8366375,35.4336112 14.741325,35.7776862 15.6460125,35.7776862 C15.6935437,35.7776862 15.741075,35.7761874 15.7886062,35.7744075 C15.7505438,36.7252272 16.0934812,37.6887869 16.8183562,38.413377 C17.4857625,39.0801686 18.3730125,39.4473817 19.3166062,39.4473817 C20.2603875,39.4473817 21.1476375,39.0800749 21.8148562,38.413377 L23.1252,37.1038689 L24.8951063,38.8722061 C25.5625125,39.5390913 26.4496688,39.9063044 27.3933562,39.9063044 C28.3370437,39.9063044 29.2242937,39.5390913 29.8916062,38.8722998 C30.6252937,38.139185 30.9680437,37.1611054 30.9202313,36.1990445 C30.9791062,36.2019485 31.0381687,36.2037283 31.0971375,36.2037283 C32.0019188,36.2037283 32.9067937,35.8595597 33.595575,35.1712225 C34.3202625,34.4472881 34.6630125,33.4843841 34.625325,32.5339391 C34.6727625,32.5358126 34.7202,32.5374052 34.7679187,32.5374052 C35.7116062,32.5374052 36.5988562,32.170192 37.2661687,31.5034005 C37.9907625,30.7793724 38.3336062,29.8165621 38.2959187,28.8662108 C38.34345,28.8679906 38.3907937,28.8696768 38.4385125,28.8696768 C39.3822,28.8696768 40.2695437,28.5024637 40.9367625,27.8356721 C41.2756687,27.4969368 41.53095,27.1058361 41.703075,26.6883185 C41.7942,26.643822 41.8799812,26.5847119 41.955825,26.5090211 L43.7740125,24.6922529 C48.3584812,20.1122998 49.3243875,12.9851803 46.1233875,7.36073068" id="Fill-11" fill="#0B43C4" mask="url(#mask-2)"></path>
                </g>
            </g>
        </g>
    </g>
</svg>