<?xml version="1.0" encoding="UTF-8"?>
<svg width="47px" height="40px" viewBox="0 0 47 40" version="1.1" xmlns="http://www.w3.org/2000/svg" xmlns:xlink="http://www.w3.org/1999/xlink">
    <!-- Generator: sketchtool 63.1 (101010) - https://sketch.com -->
    <title>7B97BF84-11B1-481B-910D-635846E921D3@1.5x</title>
    <desc>Created with sketchtool.</desc>
    <defs>
        <polygon id="path-1" points="0 0.0564700461 30.8813592 0.0564700461 30.8813592 17.5114931 0 17.5114931"></polygon>
    </defs>
    <g id="Page-1" stroke="none" stroke-width="1" fill="none" fill-rule="evenodd">
        <g id="7.1-Servicios---ayuda" transform="translate(-21.000000, -205.000000)">
            <g id="Group-50" transform="translate(21.000000, 205.000000)">
                <polygon id="Fill-1" fill="#C9DAFF" points="30.2565713 12.3315853 46.0819854 12.3315853 46.0819854 16.7357327 40.9174014 16.2177604 40.177335 15.2961014 34.8173154 15.2961014"></polygon>
                <g id="Group-49" transform="translate(0.000000, 0.079724)">
                    <path d="M25.2456645,24.0761475 C25.2456645,24.0761475 16.7645512,19.6416774 21.6085805,16.6560553 L20.1140355,15.7302488 L17.8017641,17.2816774 L16.881225,19.1333825 L17.8017641,21.294765 L23.8960668,25.6362396 L25.2456645,24.0761475 Z" id="Fill-2" fill="#C9DAFF"></path>
                    <path d="M0.917876953,27.1643318 L6.26908398,27.1643318 C6.26908398,27.1643318 13.4142773,26.6397235 16.4013477,28.1933641 L16.1186133,26.9334562 L12.9509785,24.8352995 L6.13460156,24.076129 L4.65446875,23.0791705 L0.917876953,23.0791705 L0.917876953,27.1643318 Z" id="Fill-4" fill="#C9DAFF"></path>
                    <path d="M0.917876953,32.5680092 C1.42303516,32.5680092 1.83254102,32.9791613 1.83254102,33.4863502 C1.83254102,33.9935392 1.42303516,34.4046912 0.917876953,34.4046912 C0.41271875,34.4046912 0.00321289063,33.9935392 0.00321289063,33.4863502 C0.00321289063,32.9791613 0.41271875,32.5680092 0.917876953,32.5680092" id="Fill-6" fill="#C9DAFF"></path>
                    <g id="Group-10" transform="translate(0.000000, 22.396313)">
                        <mask id="mask-2" fill="white">
                            <use xlink:href="#path-1"></use>
                        </mask>
                        <g id="Clip-9"></g>
                        <path d="M28.048783,11.8235668 L24.4871561,11.8235668 C23.9803455,11.8235668 23.5692791,12.2361935 23.5692791,12.7451336 C23.5692791,13.2541659 23.9803455,13.6667005 24.4871561,13.6667005 L28.048783,13.6667005 C28.5984627,13.6667005 29.0456971,14.1156406 29.0456971,14.66753 C29.0456971,15.2195115 28.5985545,15.6683594 28.048783,15.6683594 L18.4611502,15.6683594 C17.0199393,15.6683594 15.6646502,15.0303871 14.7430096,13.9180369 L12.450199,11.1509401 C11.2199373,9.66614747 9.42943926,8.79656221 7.51363848,8.74163134 L7.51363848,3.29757604 L10.8932322,3.29757604 C12.5599881,3.29757604 14.1379764,3.93757604 15.3369354,5.09960369 L20.2855213,9.89545622 C20.6353592,10.2345346 20.651699,10.8022765 20.3218729,11.1610783 C19.9857127,11.5265161 19.4151033,11.5503871 19.0498436,11.2143502 L15.1647244,7.63858986 C14.7912029,7.29471889 14.2104959,7.32006452 13.8680936,7.69517972 C13.5254158,8.0703871 13.55066,8.65342857 13.924365,8.99720737 L17.8094842,12.5728756 C18.3334607,13.0550876 18.9965096,13.2932442 19.6579061,13.2932442 C20.3963201,13.2932442 21.1326229,12.99647 21.6708279,12.4110323 C22.6719646,11.3221843 22.6224861,9.59877419 21.5604881,8.56946544 L16.6119021,3.7736129 C15.0688885,2.2782212 13.0379744,1.45453456 10.8932322,1.45453456 L7.33536895,1.45453456 C6.9900291,0.633889401 6.18010527,0.0564700461 5.23845293,0.0564700461 L0.917849414,0.0564700461 C0.41094707,0.0564700461 -2.75390625e-05,0.469096774 -2.75390625e-05,0.978036866 L-2.75390625e-05,7.71693088 C-2.75390625e-05,8.22587097 0.41094707,8.6384977 0.917849414,8.6384977 C1.42475176,8.6384977 1.83572637,8.22596313 1.83572637,7.71693088 L1.83572637,1.89951152 L5.23854473,1.89951152 C5.48088848,1.89951152 5.67797637,2.09757604 5.67797637,2.34070968 L5.67797637,9.72716129 C5.67797637,9.97047926 5.48088848,10.1683594 5.23854473,10.1683594 L4.28523418,10.1683594 C3.77833184,10.1683594 3.36735723,10.5809862 3.36735723,11.0899263 C3.36735723,11.5988664 3.77833184,12.0114931 4.28523418,12.0114931 L5.23845293,12.0114931 C6.19277324,12.0114931 7.01114238,11.4184055 7.3484959,10.5800645 C8.77942559,10.5883594 10.12324,11.2244885 11.0390057,12.3297419 L13.3318162,15.0968387 C14.6033865,16.6314009 16.4729217,17.5114931 18.4611502,17.5114931 L28.048783,17.5114931 C29.6107068,17.5114931 30.8813592,16.2357327 30.8813592,14.66753 C30.8813592,13.0993272 29.6107068,11.8235668 28.048783,11.8235668" id="Fill-8" fill="#0B43C4" mask="url(#mask-2)"></path>
                    </g>
                    <path d="M46.082123,8.525447 C45.5752207,8.525447 45.1642461,8.93798157 45.1642461,9.44701382 L45.1642461,15.6244332 L41.7614277,15.6244332 C41.519084,15.6244332 41.3220879,15.4264608 41.3220879,15.183235 L41.3220879,7.79678341 C41.3220879,7.5535576 41.519084,7.35558525 41.7614277,7.35558525 L42.6473594,7.35558525 C43.1542617,7.35558525 43.5652363,6.94305069 43.5652363,6.43401843 C43.5652363,5.92507834 43.1542617,5.51245161 42.6473594,5.51245161 L41.7614277,5.51245161 C40.8071074,5.51245161 39.9887383,6.10563134 39.6513848,6.94388018 C38.2204551,6.93567742 36.8766406,6.29945622 35.960875,5.19420276 L33.6680645,2.42729032 C32.3965859,0.892635945 30.526959,0.0124516129 28.5386387,0.0124516129 L18.9511895,0.0124516129 C17.3893574,0.0124516129 16.1186133,1.28821198 16.1186133,2.85632258 C16.1186133,4.42443318 17.3893574,5.70019355 18.9511895,5.70019355 L22.8716504,5.70019355 C23.3785527,5.70019355 23.7895273,5.28765899 23.7895273,4.77862673 C23.7895273,4.26959447 23.3785527,3.85705991 22.8716504,3.85705991 L18.9511895,3.85705991 C18.4015098,3.85705991 17.9542754,3.40811982 17.9542754,2.85623041 C17.9542754,2.30443318 18.401418,1.85540092 18.9511895,1.85540092 L28.5387305,1.85540092 C29.9800332,1.85540092 31.3353223,2.49337327 32.2569629,3.60581567 L34.5497734,6.37272811 C35.7799434,7.85752074 37.5705332,8.72710599 39.486334,8.7822212 L39.486334,14.2261843 L36.1067402,14.2261843 C34.4400762,14.2261843 32.8619961,13.5861843 31.6630371,12.4241567 L26.7144512,7.62830415 C26.3646133,7.28922581 26.3482734,6.72157604 26.6780996,6.36277419 C27.0142598,5.99715207 27.5848691,5.97337327 27.9501289,6.3095023 L31.8353398,9.88517051 C32.2090449,10.2290415 32.7894766,10.203788 33.1321543,9.82858065 C33.4746484,9.45337327 33.4494043,8.87042396 33.0756992,8.526553 L29.1904883,4.95097696 C28.081582,3.93042396 26.3495586,4.00314286 25.3291445,5.11282028 C24.3280078,6.20185253 24.3774863,7.92517051 25.4394844,8.9543871 L30.3880703,13.7502396 C31.931084,15.2457235 33.961998,16.069318 36.1067402,16.069318 L39.6646035,16.069318 C40.0099434,16.8899631 40.8198672,17.4673825 41.7615195,17.4673825 L46.0822148,17.4673825 C46.5891172,17.4673825 47.0000918,17.0548479 47.0000918,16.5458157 L47.0000918,9.44682949 C47.0000918,8.93798157 46.5890254,8.525447 46.082123,8.525447" id="Fill-11" fill="#0B43C4"></path>
                    <path d="M29.6355104,31.3557235 C29.4268561,30.8920369 28.8842447,30.6851244 28.42269,30.8945253 C27.9579225,31.0977512 27.7452291,31.6408848 27.9476412,32.1073364 C28.0980045,32.4541567 28.4354498,32.6611613 28.7896021,32.6611613 C28.9119674,32.6611613 29.0362604,32.6364608 29.1555963,32.5842949 C29.1594518,32.5827281 29.1715689,32.5772903 29.1753326,32.5755392 C29.6374381,32.3661382 29.8441646,31.8195945 29.6355104,31.3557235" id="Fill-13" fill="#C9DAFF"></path>
                    <path d="M31.9171676,29.8042028 C31.6169918,29.3950783 31.040232,29.3099171 30.6322867,29.6098249 C30.2233316,29.9103779 30.1344723,30.4870599 30.4339137,30.897659 C30.6137437,31.1442028 30.8924391,31.274894 31.1751734,31.274894 C31.363357,31.274894 31.553193,31.2170138 31.7165914,31.0969217 C31.718152,31.096 31.7267809,31.0894562 31.728066,31.0885346 C32.1346344,30.7861382 32.2171598,30.213235 31.9171676,29.8042028" id="Fill-15" fill="#C9DAFF"></path>
                    <path d="M27.0694113,32.390341 C26.9648547,31.8940276 26.4795246,31.5762396 25.9848312,31.6789124 C25.4905051,31.7774378 25.1673801,32.2579908 25.2622063,32.7557788 C25.3462922,33.1972535 25.7309211,33.5044424 26.1626418,33.5044424 C26.2197395,33.5044424 26.2778469,33.4990046 26.3359543,33.4878525 C26.3419211,33.4866544 26.3569758,33.4836129 26.3631262,33.4823226 C26.8587375,33.3767926 27.174427,32.8880369 27.0694113,32.390341" id="Fill-17" fill="#C9DAFF"></path>
                    <path d="M33.3219994,28.5768848 L33.2199213,28.4841659 L33.3304447,28.5842581 L33.3219994,28.5768848 Z M33.8345932,27.7997419 C33.458226,27.4590046 32.8779779,27.4889585 32.5383295,27.8669309 C32.5338314,27.872 32.5232748,27.8838894 32.5188686,27.8890507 C32.1876654,28.2743963 32.2304428,28.8563318 32.6142455,29.1887742 C32.7876498,29.3390046 33.0009857,29.4124608 33.2132201,29.4124608 C33.4682318,29.4124608 33.721683,29.3065622 33.90289,29.0997419 C34.2408861,28.7217696 34.2105014,28.1402028 33.8345932,27.7997419 L33.8345932,27.7997419 Z" id="Fill-19" fill="#C9DAFF"></path>
                    <path d="M36.1708328,22.80553 C35.6857781,22.6576959 35.1726336,22.9356682 35.0253914,23.422765 C34.8763133,23.9092166 35.1482156,24.4248848 35.6328113,24.5745622 C35.7226805,24.6023963 35.8134676,24.615576 35.9029695,24.615576 C36.2952176,24.615576 36.6584578,24.3610138 36.7799051,23.9647926 L36.7837605,23.9521659 C36.9307273,23.4650691 36.6558875,22.9531797 36.1708328,22.80553" id="Fill-21" fill="#C9DAFF"></path>
                    <path d="M37.3464479,18.0492258 C37.3445201,18.0375207 37.3422252,18.0258157 37.3397467,18.0141106 C37.236108,17.5160461 36.7499518,17.1974286 36.2541568,17.3012995 C35.7599225,17.4047097 35.4422135,17.889871 35.5417213,18.3859078 C35.625899,18.8256313 36.0097018,19.1333733 36.4418814,19.1333733 C36.4955826,19.1333733 36.55011,19.1286728 36.6047291,19.1188111 C37.1037369,19.0291336 37.4357662,18.5502396 37.3464479,18.0492258" id="Fill-23" fill="#C9DAFF"></path>
                    <path d="M36.5046797,20.0487465 C36.0013574,20.0041382 35.5543066,20.3787926 35.5097852,20.8857051 C35.508959,20.8946452 35.5076738,20.9128018 35.507123,20.9217419 C35.4773809,21.4298525 35.8633867,21.8659816 36.3694629,21.8958433 C36.3878223,21.8969493 36.405998,21.8975945 36.4241738,21.8975945 C36.9020684,21.8975945 37.3036797,21.5264424 37.3388379,21.0432166 C37.3806973,20.5382396 37.0081855,20.0933548 36.5046797,20.0487465" id="Fill-25" fill="#C9DAFF"></path>
                    <path d="M35.272325,25.4278525 C34.8317,25.176977 34.2711883,25.3324608 34.0213172,25.775318 L34.0084656,25.7983594 C33.7668563,26.2457327 33.9299793,26.8091429 34.3753777,27.0518157 C34.5156434,27.128129 34.6663738,27.1643502 34.8150848,27.1643502 C35.1390359,27.1643502 35.4519715,26.9918157 35.6176648,26.6850876 L34.8197664,26.2296037 L35.6183074,26.6839816 C35.8682703,26.2411244 35.713409,25.6788203 35.272325,25.4278525" id="Fill-27" fill="#C9DAFF"></path>
                    <path d="M18.625127,7.87713364 C18.3984805,7.4218341 17.846873,7.23722581 17.3937637,7.46496774 L17.3855937,7.46902304 C16.9321172,7.69667281 16.7524707,8.24810138 16.979209,8.70330876 C17.1397617,9.02579724 17.4650898,9.21141935 17.8023516,9.21141935 C17.941332,9.21141935 18.082332,9.17989862 18.2146113,9.11353917 C18.6680879,8.88598157 18.8517734,8.33243318 18.625127,7.87713364" id="Fill-29" fill="#C9DAFF"></path>
                    <path d="M21.2805168,7.10875576 C21.1610891,6.61428571 20.6655695,6.31032258 20.1721613,6.43032258 C20.1679387,6.43133641 20.1549035,6.43465438 20.1506809,6.43576037 C19.6597512,6.56276498 19.3624211,7.06571429 19.4888254,7.55852535 C19.5955852,7.97437788 19.9670871,8.25078341 20.3754914,8.25078341 C20.451132,8.25078341 20.5280578,8.24129032 20.6048,8.22147465 C21.097382,8.10156682 21.3999445,7.60341014 21.2805168,7.10875576" id="Fill-31" fill="#C9DAFF"></path>
                    <path d="M16.1981186,9.20606452 C15.880685,8.81002765 15.3027318,8.74781567 14.9078217,9.06578802 L15.4768705,9.78882949 L14.9050678,9.06790783 C14.5085053,9.38495853 14.4430541,9.96468203 14.7587436,10.3628387 C14.9401342,10.5914101 15.2075385,10.7103963 15.4775131,10.7103963 C15.6778139,10.7103963 15.8796752,10.6447742 16.0486732,10.5097512 L16.0607904,10.4999816 C16.454599,10.1806267 16.5155521,9.60210138 16.1981186,9.20606452" id="Fill-33" fill="#C9DAFF"></path>
                    <path d="M11.3041518,15.7629401 C10.815058,15.6291152 10.3105424,15.918424 10.1771615,16.4094839 C10.1748666,16.417871 10.1704604,16.4352903 10.168349,16.4437696 C10.0490131,16.9382396 10.3515756,17.4354747 10.843974,17.5555668 C10.9166771,17.5732627 10.9893803,17.5817419 11.0609818,17.5817419 C11.4727826,17.5817419 11.8469467,17.3011889 11.9512279,16.8830323 C12.0770814,16.395659 11.7894818,15.8958433 11.3041518,15.7629401" id="Fill-35" fill="#C9DAFF"></path>
                    <path d="M10.7193873,18.4706728 C10.212026,18.4423779 9.77929551,18.8293825 9.74992051,19.3374009 C9.74918613,19.3492903 9.74872715,19.3610876 9.74835996,19.3728848 C9.73348887,19.8813641 10.1319791,20.3050507 10.6385143,20.3202581 C10.6478775,20.3205346 10.6570572,20.3207189 10.6663287,20.3207189 C11.15836,20.3207189 11.5649283,19.9287373 11.5831041,19.4325161 C11.6060533,18.9293825 11.221608,18.4999816 10.7193873,18.4706728" id="Fill-37" fill="#C9DAFF"></path>
                    <path d="M12.4593236,13.2445346 C12.0103451,13.0080369 11.4556166,13.1817696 11.2201576,13.6324608 L11.2051947,13.6621382 C10.9814857,14.1186359 11.1691186,14.6699724 11.6236967,14.894765 C11.7538646,14.9591889 11.8918354,14.9896037 12.0279701,14.9896037 C12.3650482,14.9896037 12.6895502,14.8023226 12.8503783,14.4797419 C13.0789525,14.0306175 12.9052729,13.4794654 12.4593236,13.2445346" id="Fill-39" fill="#C9DAFF"></path>
                    <path d="M14.1170008,11.0272903 C13.7269559,10.7022212 13.1482684,10.7561382 12.8245008,11.147659 C12.8200945,11.1530968 12.8099969,11.1656313 12.8055906,11.1710691 C12.4909109,11.569871 12.558198,12.1484885 12.9552195,12.4646175 C13.1237586,12.5989032 13.3247938,12.6639724 13.5245438,12.6639724 C13.793784,12.6639724 14.0607293,12.5456313 14.2420281,12.3187189 C14.5600125,11.9272903 14.5049344,11.3507005 14.1170008,11.0272903" id="Fill-41" fill="#C9DAFF"></path>
                    <path d="M11.7567195,21.9903502 C11.6674012,21.4892442 11.1901492,21.1558802 10.6914168,21.2457419 C10.192409,21.3355115 9.86037969,21.8143134 9.94969805,22.315235 L9.95135039,22.3243594 C10.0308465,22.7697972 10.416118,23.079106 10.851327,23.079106 C10.9055789,23.079106 10.9605652,23.0744055 11.015827,23.0643594 C11.5148348,22.9747742 11.8461297,22.4913641 11.7567195,21.9903502" id="Fill-43" fill="#C9DAFF"></path>
                    <path d="M28.398318,20.9654562 L23.5594293,24.835318 L18.9099176,21.1395576 C18.3595035,20.6746728 18.0439977,19.9955023 18.0439977,19.2743041 C18.0439977,17.9308018 19.132525,16.8378065 20.4705563,16.8378065 C21.4556285,16.8378065 22.3358688,17.4284977 22.7130621,18.3425991 C22.8553473,18.6868387 23.1899469,18.9113548 23.5610816,18.9113548 C23.9322164,18.9113548 24.2667242,18.6869309 24.4090094,18.3425991 C24.7862027,17.4284977 25.666443,16.8378065 26.651607,16.8378065 C27.9896383,16.8378065 29.0781656,17.9308018 29.0781656,19.274212 C29.0781656,19.910341 28.8370152,20.5090507 28.398318,20.9654562 M26.651607,14.9946728 C25.4568707,14.9946728 24.3498004,15.4893272 23.5610816,16.3240737 C22.7720875,15.4893272 21.6652926,14.9946728 20.4705563,14.9946728 C18.1202809,14.9946728 16.2082438,16.9143963 16.2082438,19.2741198 C16.2082438,20.5473917 16.7675621,21.7457327 17.7426285,22.5619539 C17.7485035,22.5669309 17.7545621,22.5718157 17.7606207,22.5766083 L22.9912984,26.7344885 C23.1581852,26.8672074 23.3595875,26.9334747 23.5609898,26.9334747 C23.7633102,26.9334747 23.9656305,26.86647 24.1327926,26.7327373 L29.5851598,22.3723687 C29.6118727,22.3510783 29.6373004,22.3282212 29.661443,22.3039816 C30.4691637,21.495318 30.9138277,20.4192811 30.9138277,19.2741198 C30.9138277,16.9143963 29.0017906,14.9946728 26.651607,14.9946728" id="Fill-45" fill="#0B43C4"></path>
                    <path d="M46.0820312,5.51547465 C46.5871895,5.51547465 46.9966953,5.92662673 46.9966953,6.43381567 C46.9966953,6.94100461 46.5871895,7.35215668 46.0820312,7.35215668 C45.576873,7.35215668 45.1673672,6.94100461 45.1673672,6.43381567 C45.1673672,5.92662673 45.576873,5.51547465 46.0820312,5.51547465" id="Fill-47" fill="#C9DAFF"></path>
                </g>
            </g>
        </g>
    </g>
</svg>