<?xml version="1.0" encoding="UTF-8"?>
<svg width="53px" height="40px" viewBox="0 0 53 40" version="1.1" xmlns="http://www.w3.org/2000/svg" xmlns:xlink="http://www.w3.org/1999/xlink">
    <!-- Generator: sketchtool 63.1 (101010) - https://sketch.com -->
    <title>36491732-EB48-49BB-A318-9F7D2FB0B08F@1.5x</title>
    <desc>Created with sketchtool.</desc>
    <defs>
        <polygon id="path-1" points="0 39.998342 53 39.998342 53 0 0 0"></polygon>
    </defs>
    <g id="Page-1" stroke="none" stroke-width="1" fill="none" fill-rule="evenodd">
        <g id="7.1-Servicios---ayuda" transform="translate(-27.000000, -602.000000)">
            <g id="Group-15" transform="translate(27.000000, 602.000000)">
                <path d="M1.69156953,26.4763834 C1.69156953,26.4763834 3.28477852,20.8690259 24.8309348,20.8690259 L24.8309348,17.4520311 L11.7059816,17.4520311 L7.53337031,19.1693368 L3.51240937,23.2661244 L1.69156953,26.4763834 Z" id="Fill-1" fill="#C9DAFF"></path>
                <path d="M40.0042758,35.264829 C40.0042758,35.264829 46.4529887,38.2938446 46.4529887,30.7078342 L48.6523852,30.7078342 L49.7152836,33.7807876 L48.6523852,37.3913575 L46.4529887,38.9588187 L41.6733617,38.9588187 L40.0042758,35.264829 Z" id="Fill-3" fill="#C9DAFF"></path>
                <path d="M8.88175449,35.264829 C8.88175449,35.264829 15.3303639,38.2938446 15.3303639,30.7078342 L17.5297604,30.7078342 L18.5927623,33.7807876 L17.5297604,37.3913575 L15.3303639,38.9588187 L10.5507369,38.9588187 L8.88175449,35.264829 Z" id="Fill-5" fill="#C9DAFF"></path>
                <mask id="mask-2" fill="white">
                    <use xlink:href="#path-1"></use>
                </mask>
                <g id="Clip-8"></g>
                <polygon id="Fill-7" fill="#C9DAFF" mask="url(#mask-2)" points="39.0629668 8.68290155 41.6733203 8.68290155 41.6733203 3.67025907 39.0629668 3.67025907"></polygon>
                <path d="M6.2878082,30.0475648 L14.8165641,30.0475648 C14.8165641,30.0475648 18.28765,29.0565803 15.3475992,26.1133679 C12.4075484,23.1701554 18.6097906,27.5198964 18.6097906,27.5198964 L20.8857887,32.6658031 L4.57441758,32.6658031 L6.2878082,30.0475648 Z" id="Fill-9" fill="#C9DAFF" mask="url(#mask-2)"></path>
                <path d="M40.5354041,24.6580518 C40.5354041,24.6580518 48.6523748,24.3282073 48.6523748,30.7078964 L52.3705525,30.7078964 L50.863365,26.4763938 L48.6523748,23.6181554 L44.9631814,21.8925596 L42.2802635,21.4489326 L40.5354041,24.6580518 Z" id="Fill-10" fill="#C9DAFF" mask="url(#mask-2)"></path>
                <path d="M0.401764844,13.8344456 L14.5888918,13.8344456 C14.5888918,13.8344456 15.802716,14.0145492 15.802716,12.2600415 L15.802716,0.784186528 L17.4415754,1.3917513 L18.6097492,7.56636269 L18.6097492,17.4519585 L2.9812707,17.4519585 L0.932903516,16.7485389 L0.401764844,13.8344456 Z" id="Fill-11" fill="#C9DAFF" mask="url(#mask-2)"></path>
                <path d="M22.6214352,37.922601 C22.3488785,37.922601 22.0820152,38.0334819 21.8895797,38.226228 C21.6970406,38.4188705 21.5862789,38.6864352 21.5862789,38.9588705 C21.5862789,39.2313057 21.6970406,39.4988705 21.8895797,39.691513 C22.0820152,39.8842591 22.3488785,39.9951399 22.6214352,39.9951399 C22.8935777,39.9951399 23.160441,39.8842591 23.3532906,39.691513 C23.5458297,39.4988705 23.6565914,39.2325492 23.6565914,38.9588705 C23.6565914,38.6864352 23.5458297,38.4188705 23.3532906,38.226228 C23.160441,38.0334819 22.8935777,37.922601 22.6214352,37.922601" id="Fill-12" fill="#C9DAFF" mask="url(#mask-2)"></path>
                <path d="M39.0630289,29.6324456 L43.0103902,22.5943109 C47.0413922,22.6684041 50.3604137,25.7144145 50.8633961,29.6324456 L39.0630289,29.6324456 Z M48.6524059,33.9879896 C48.6524059,36.1459171 46.9092027,37.9032228 44.7587691,37.9246736 C44.7455191,37.9242591 44.7321656,37.922601 44.7188121,37.922601 L44.5994586,37.922601 C42.485566,37.8590777 40.7852184,36.119285 40.7852184,33.9879896 C40.7852184,33.1646736 41.041523,32.3688187 41.5138648,31.7049845 L47.9237594,31.7049845 C48.3959977,32.3688187 48.6524059,33.1646736 48.6524059,33.9879896 L48.6524059,33.9879896 Z M35.8653277,7.56633161 L34.3672496,7.56633161 C34.0837203,7.56633161 33.8528805,7.3355544 33.8528805,7.05140933 L33.8528805,5.17969948 C33.8528805,4.89586528 34.0837203,4.6647772 34.3672496,4.6647772 L40.4778805,4.6647772 C40.7613062,4.6647772 40.9922496,4.89586528 40.9922496,5.17969948 L40.9922496,7.05140933 C40.9922496,7.3355544 40.7613062,7.56633161 40.4778805,7.56633161 L35.8653277,7.56633161 Z M28.8809215,6.94456995 C28.8809215,6.60166839 29.159482,6.32280829 29.5020152,6.32280829 L31.782568,6.32280829 L31.782568,7.05140933 C31.782568,7.22788601 31.8003727,7.40001036 31.8339117,7.56633161 L29.5020152,7.56633161 C29.159482,7.56633161 28.8809215,7.2874715 28.8809215,6.94456995 L28.8809215,6.94456995 Z M44.0977184,5.04125389 L45.1328746,5.04125389 L45.1328746,7.11379275 L44.0977184,7.11379275 C43.5267262,7.11379275 43.0625621,6.64902591 43.0625621,6.07752332 C43.0625621,5.50633161 43.5267262,5.04125389 44.0977184,5.04125389 L44.0977184,5.04125389 Z M6.2878082,31.7081969 C6.54411289,30.0619793 7.40784727,28.5747254 8.74185312,27.5259171 C8.74506211,27.5238446 8.74796055,27.5210466 8.75116953,27.5189741 C9.92617539,26.5969016 11.3386461,26.1091295 12.8359996,26.1091295 C16.1387691,26.1091295 18.8847281,28.5399067 19.3833629,31.7081969 L6.2878082,31.7081969 Z M16.7695934,33.9879896 C16.7695934,36.1459171 15.0263902,37.9032228 12.8759566,37.9246736 C12.8627066,37.9242591 12.8493531,37.922601 12.8359996,37.922601 L12.7166461,37.922601 C10.6027535,37.8590777 8.90240586,36.119285 8.90240586,33.9879896 C8.90240586,33.9172124 8.89505625,33.8475751 8.88180625,33.7807358 L16.790193,33.7807358 C16.7768395,33.8475751 16.7695934,33.9172124 16.7695934,33.9879896 L16.7695934,33.9879896 Z M5.60481211,18.2386632 L7.97356016,18.2386632 C7.47616758,18.5228083 6.99626914,18.8341036 6.53448594,19.1693368 L5.60481211,18.2386632 Z M2.07037461,9.73928497 C2.07037461,9.67534715 2.07358359,9.61172021 2.07523984,9.54778238 L13.4024371,9.54778238 C13.9742574,9.54778238 14.4375934,9.08394819 14.4375934,8.51151295 C14.4375934,7.93918135 13.9742574,7.47524352 13.4024371,7.47524352 L2.41166562,7.47524352 C3.37881211,4.34944041 6.2930875,2.0728601 9.72887461,2.0728601 L16.4064605,2.0728601 C16.9774527,2.0728601 17.4416168,2.53762694 17.4416168,3.10912953 L17.4416168,15.1298549 C17.4416168,15.7010466 16.9774527,16.1661244 16.4064605,16.1661244 L3.10594492,16.1661244 L3.1051168,16.1661244 C2.53453867,16.1661244 2.07037461,15.7010466 2.07037461,15.1298549 L2.07037461,9.73928497 Z M20.5474996,14.0935855 L24.3258199,14.0935855 C24.896398,14.0935855 25.3609762,14.5583523 25.3609762,15.1298549 C25.3609762,15.7010466 24.896398,16.1661244 24.3258199,16.1661244 L20.5474996,16.1661244 C19.9765074,16.1661244 19.5123434,15.7010466 19.5123434,15.1298549 C19.5123434,14.5583523 19.9765074,14.0935855 20.5474996,14.0935855 L20.5474996,14.0935855 Z M43.2392633,20.5249845 L40.8268316,9.61462176 C41.4778414,9.52633161 42.0520426,9.19482902 42.4559605,8.71472539 C42.9327535,9.01306736 43.4951539,9.18633161 44.0977184,9.18633161 L46.1680309,9.18633161 C46.7397477,9.18633161 47.2031871,8.72239378 47.2031871,8.15006218 L47.2031871,4.00498446 C47.2031871,3.43254922 46.7397477,2.96871503 46.1680309,2.96871503 L44.0977184,2.96871503 C43.4774527,2.96871503 42.8992145,3.1524456 42.4135191,3.46778238 C41.9396246,2.93140933 41.2477262,2.59223834 40.4778805,2.59223834 L34.3672496,2.59223834 C33.2693629,2.59223834 32.329648,3.28156477 31.9556461,4.25026943 L29.5020152,4.25026943 C28.0180152,4.25026943 26.810609,5.45897409 26.810609,6.94456995 C26.810609,8.4301658 28.0180152,9.63887047 29.5020152,9.63887047 L34.8301715,9.63887047 L34.8301715,11.7271606 C34.8301715,12.2995959 35.2936109,12.7634301 35.8653277,12.7634301 C36.437148,12.7634301 36.900484,12.2995959 36.900484,11.7271606 L36.900484,9.63887047 L38.7120074,9.63887047 L41.3104566,21.3920311 L36.3926363,30.1607358 C35.8552867,31.1152435 34.8419723,31.7081969 33.7472945,31.7081969 L21.470652,31.7081969 C20.9566969,27.3935855 17.2818922,24.0365907 12.8359996,24.0365907 C10.8687887,24.0365907 9.01275352,24.6781451 7.46850742,25.8917202 L7.46250352,25.8965907 C5.62385898,27.3441554 4.46821055,29.4215648 4.19886289,31.7081969 L2.07275547,31.7081969 C2.20784336,24.258456 8.30356797,18.2399067 15.7764645,18.2399067 L23.1195523,18.2399067 C23.6990328,18.2399067 24.1709605,18.712342 24.1709605,19.2927565 L24.1709605,28.5993886 C24.1709605,29.1718238 24.6342965,29.635658 25.2061168,29.635658 L30.7142867,29.635658 C32.9613004,29.635658 35.032027,28.4124456 36.1181129,26.4438446 C36.6206812,25.5330674 36.8871305,24.5016684 36.8879586,23.461772 L36.8932379,20.0189741 C36.894066,19.4466425 36.4310406,18.9818756 35.8593238,18.9810466 L35.8580816,18.9810466 C35.2870895,18.9810466 34.8237535,19.4441554 34.8229254,20.0157617 L34.8176461,23.4593886 C34.817232,24.1507876 34.6401168,24.836487 34.3061754,25.4416684 C33.5839469,26.7499585 32.2074996,27.5627047 30.7142867,27.5627047 L26.241273,27.5627047 L26.241273,19.292342 C26.241273,18.7616684 26.1078414,18.2613575 25.8736891,17.8230155 C26.8036734,17.2849845 27.4312887,16.2794922 27.4312887,15.1294404 C27.4312887,13.4151399 26.0378648,12.0206321 24.3258199,12.0206321 L20.5474996,12.0206321 C20.1843668,12.0206321 19.8362437,12.0838446 19.5123434,12.1987668 L19.5123434,3.10871503 C19.5123434,1.39441451 18.1189195,-9.32642487e-05 16.4068746,-9.32642487e-05 L9.72887461,-9.32642487e-05 C4.88786289,-9.32642487e-05 0.862140234,3.55804145 0.122107031,8.19866321 C0.0910523438,8.29741969 0.0740757812,8.40218653 0.0740757812,8.51109845 C0.0740757812,8.51762694 0.0748003906,8.52363731 0.0748003906,8.5297513 C0.0255269531,8.92643523 6.2109375e-05,9.33006218 6.2109375e-05,9.73928497 L6.2109375e-05,15.1298549 C6.2109375e-05,16.6863316 1.148775,17.9791813 2.64209141,18.2038446 L4.93444492,20.4986632 C1.89729648,23.3791813 6.2109375e-05,27.4522383 6.2109375e-05,31.9612539 L6.2109375e-05,32.7444663 C6.2109375e-05,33.3169016 0.463398047,33.7807358 1.03521836,33.7807358 L6.85269297,33.7807358 C6.83933945,33.8475751 6.83209336,33.9172124 6.83209336,33.9879896 C6.83209336,35.4918238 7.38807578,36.8676788 8.30356797,37.922601 L1.03521836,37.922601 C0.463398047,37.922601 6.2109375e-05,38.3868497 6.2109375e-05,38.9588705 C6.2109375e-05,39.5312021 0.463398047,39.9951399 1.03521836,39.9951399 L12.716232,39.9951399 C12.7562926,39.9963834 12.7959391,39.9983523 12.8359996,39.9983523 C16.1464293,39.9983523 18.8399059,37.3020829 18.8399059,33.9879896 C18.8399059,33.9172124 18.8325562,33.8475751 18.8193062,33.7807358 L33.7472945,33.7807358 C35.3773551,33.7807358 36.900484,32.9986632 37.8552086,31.7049845 L39.1661305,31.7049845 C38.871318,32.4231192 38.7149059,33.1970052 38.7149059,33.9879896 C38.7149059,35.4918238 39.2708883,36.8676788 40.1863805,37.922601 L26.7620602,37.922601 C26.1903434,37.922601 25.7269039,38.3868497 25.7269039,38.9588705 C25.7269039,39.5312021 26.1903434,39.9951399 26.7620602,39.9951399 L44.5990445,39.9951399 C44.6391051,39.9963834 44.6787516,39.9983523 44.7188121,39.9983523 C48.0292418,39.9983523 50.7227184,37.3020829 50.7227184,33.9879896 C50.7227184,33.1970052 50.5662027,32.4231192 50.2713902,31.7049845 L51.9649059,31.7049845 C52.5366227,31.7049845 53.0000621,31.2410466 53.0000621,30.668715 C53.0000621,25.1987668 48.6552008,20.725399 43.2392633,20.5249845 L43.2392633,20.5249845 Z" id="Fill-13" fill="#0B43C4" mask="url(#mask-2)"></path>
                <path d="M35.8653691,16.9085492 C36.4370859,16.9085492 36.9005254,16.4446114 36.9005254,15.8722798 C36.9005254,15.2999482 36.4370859,14.8360104 35.8653691,14.8360104 L35.8617461,14.8360104 C35.2899258,14.8360104 34.8281426,15.2999482 34.8281426,15.8722798 C34.8281426,16.4446114 35.2936523,16.9085492 35.8653691,16.9085492" id="Fill-14" fill="#C9DAFF" mask="url(#mask-2)"></path>
            </g>
        </g>
    </g>
</svg>